<svg xmlns="http://www.w3.org/2000/svg" aria-hidden="true" style="position:absolute;width:0;height:0;overflow:hidden"><defs><symbol id="icon-clock" viewBox="0 0 28 28"><path d="M4.277 1.313C2.314 1.586.772 2.921.186 4.84c-.137.443-.148.574-.148 1.313s.011.87.148 1.313c.268.88.941 1.952 1.427 2.27.219.142.52.186.798.109.213-.06.541-.366 3.073-2.888 1.559-1.559 2.893-2.915 2.97-3.024.405-.58.159-1.165-.738-1.766-1.028-.689-2.319-1.006-3.44-.853zm1.585 2.05c.148.049.273.109.284.131.016.022-.853.919-1.936 2.002L2.252 7.454l-.082-.159c-.224-.443-.284-1.362-.12-1.92.29-.995 1.083-1.794 2.056-2.067.388-.109 1.395-.077 1.755.055zM22.504 1.313a5.193 5.193 0 0 0-2.22.853c-.897.602-1.143 1.187-.738 1.766.077.109 1.411 1.466 2.97 3.024 2.532 2.521 2.86 2.827 3.073 2.888.279.077.58.033.798-.109.487-.317 1.159-1.389 1.427-2.27.137-.443.148-.574.148-1.313s-.011-.87-.148-1.313c-.629-2.067-2.352-3.434-4.468-3.549a5.769 5.769 0 0 0-.842.022zm1.334 1.996c1.641.432 2.543 2.04 2.089 3.719-.137.509-.005.602-2.16-1.553l-1.969-1.969.164-.066c.552-.219 1.34-.279 1.876-.131zM13.152 4.244l-.602.082c-1.384.18-2.844.695-4.069 1.444a9.674 9.674 0 0 0-2.002 1.586C5.32 8.51 4.543 9.718 4.002 11.19c-1.395 3.806-.569 7.941 2.188 10.954l.372.41-.159.164c-.087.093-.64.705-1.23 1.362-1.137 1.269-1.23 1.422-1.154 1.838.12.651.842 1.006 1.395.684.104-.06.695-.667 1.313-1.351.618-.678 1.176-1.291 1.241-1.356l.115-.12.459.279c1.641.99 3.467 1.488 5.458 1.488s3.817-.498 5.458-1.488l.459-.279.115.12c.066.066.623.678 1.241 1.356.618.684 1.209 1.291 1.313 1.351.552.323 1.274-.033 1.395-.684.077-.416-.016-.569-1.154-1.838-.591-.656-1.143-1.269-1.23-1.362l-.159-.164.372-.41c1.537-1.679 2.466-3.659 2.778-5.928.104-.771.082-2.28-.049-3.035-.399-2.286-1.395-4.205-3.019-5.824-1.63-1.635-3.549-2.614-5.879-3.008-.498-.082-2.144-.153-2.488-.104zm2.024 1.996a10.31 10.31 0 0 1 1.848.454c4.435 1.673 6.748 6.497 5.25 10.965a8.766 8.766 0 0 1-5.321 5.447c-1.034.372-1.761.492-2.953.492s-1.92-.12-2.953-.492a8.763 8.763 0 0 1-5.321-5.447 8.706 8.706 0 0 1 3.719-10.21c1.712-1.055 3.68-1.471 5.731-1.209z"/><path d="M13.109 9.926c-.12.038-.273.131-.35.202-.29.263-.29.279-.29 3.052 0 2.816 0 2.805.323 3.079.295.246.47.263 2.543.246l1.93-.016.219-.148a.965.965 0 0 0 .273-1.351c-.257-.388-.372-.416-1.963-.432l-1.411-.016V12.59c0-1.777-.011-1.974-.104-2.171a.826.826 0 0 0-.536-.498c-.263-.093-.372-.093-.634.005z"/></symbol><symbol id="icon-facebook" viewBox="0 0 28 28"><path d="M18.663 4.649h2.556V.197C20.778.136 19.261 0 17.495 0c-3.685 0-6.21 2.318-6.21 6.579V10.5H7.218v4.977h4.067V28h4.986V15.478h3.902l.62-4.977H16.27V7.072c.001-1.439.389-2.423 2.393-2.423z"/></symbol><symbol id="icon-frame" viewBox="0 0 28 28"><path d="M.574.077C.344.175.065.509.027.722.011.82 0 2.663.011 4.818l.016 3.916.153.197c.345.454.93.525 1.356.164.328-.279.323-.191.323-3.866V1.86l7.53-.027.202-.159c.268-.202.377-.47.35-.831-.027-.35-.202-.602-.503-.738C9.225.007 8.995.001 4.975.007 1.595.007.704.018.573.078zM20.344.12c-.334.175-.454.361-.481.744-.027.388.06.591.355.815l.197.153 5.726.033v3.363c0 3.675-.005 3.587.323 3.866.361.301.848.306 1.198.011.355-.295.339-.115.339-4.424 0-3.205-.016-3.948-.077-4.096a1.083 1.083 0 0 0-.541-.525C27.279.022 26.12 0 23.905 0h-3.32l-.241.12zM.738 18.698a.872.872 0 0 0-.558.372l-.153.197-.016 3.916c-.011 2.155 0 3.998.016 4.096.038.219.323.552.558.645.142.06.973.077 4.402.077 4.003 0 4.238-.005 4.452-.104.301-.137.476-.388.503-.738.027-.361-.082-.629-.35-.831l-.202-.159-7.53-.027v-3.363c0-2.242-.022-3.407-.06-3.511-.153-.41-.645-.667-1.061-.569zM26.78 18.725a1.23 1.23 0 0 0-.35.208c-.295.268-.29.219-.29 3.839v3.363l-5.726.033-.197.153c-.295.224-.383.427-.355.815.027.383.148.569.481.738l.241.126h3.325c2.674 0 3.363-.016 3.505-.077.235-.093.52-.427.558-.645.016-.098.027-1.941.016-4.096l-.016-3.916-.153-.197c-.263-.345-.667-.481-1.039-.345z"/></symbol><symbol id="icon-home" viewBox="0 0 28 28"><path d="M13.792 1.203C13.59 1.285 2.587 9.45 2.461 9.608c-.104.137-.109.213-.109 1.799v1.652l.142.17c.159.191.443.268.629.164.071-.033.317-.197.541-.361l.41-.301.016 5.245c.005 2.882 0 5.272-.016 5.305-.016.055-.213.071-.711.071-.689 0-.695 0-.853.159l-.159.159v1.389c0 1.537.005 1.57.361 1.717.273.115 22.302.115 22.575 0 .355-.148.361-.18.361-1.717V23.67l-.159-.159c-.159-.159-.164-.159-.853-.159-.498 0-.695-.016-.711-.071-.016-.033-.022-2.434-.016-5.332l.016-5.266.459.339c.596.438.793.476 1.072.197l.191-.191V11.36c0-1.564-.005-1.673-.104-1.799-.06-.071-.58-.476-1.148-.897l-1.045-.76V4.798c0-3.451.005-3.391-.355-3.56-.262-.126-3.724-.131-3.987-.005-.323.153-.334.191-.361 1.761l-.027 1.433-1.941-1.422c-2.636-1.936-2.598-1.914-2.888-1.799zm8.356 3.473v2.33l-.18-.126c-.098-.071-.618-.443-1.148-.837l-.968-.705V2.352h2.297v2.324zM19.512 6.53l4.988 3.664v1.466l-.175-.131c-.098-.077-.733-.541-1.411-1.039-.678-.492-2.915-2.133-4.971-3.642-4.118-3.024-3.916-2.904-4.331-2.62-.262.18-9.898 7.306-10.013 7.41-.093.077-.098.044-.098-.662v-.738l10.473-7.76.273.197c.153.109 2.521 1.843 5.266 3.855zm-1.11 2.1 4.348 3.188v11.534l-9.324-.027-.055-9.242-.131-.246a1.993 1.993 0 0 0-.798-.809l-.273-.148H10.2c-1.947 0-1.969 0-2.204.126a1.87 1.87 0 0 0-.815.82l-.153.312-.016 4.61-.011 4.605h-1.75v-5.759l.005-5.753.831-.607c.459-.334 2.417-1.783 4.353-3.216 1.941-1.433 3.544-2.598 3.571-2.592.022.011 2.002 1.449 4.391 3.205zm-6.332 5.55.153.148.016 5.66.011 5.66H8.148v-5.545c0-3.976.016-5.589.06-5.715a.656.656 0 0 1 .235-.284c.159-.098.273-.104 1.821-.093l1.657.016.148.153zM7 25.074v.574H3.5V24.5H7v.574zm17.5 0v.574H13.398V24.5H24.5v.574z"/><path d="M16.259 12.966c-.366.142-.749.514-.935.913l-.148.312v3.117l.142.306c.18.377.487.695.848.875.268.131.279.131 1.936.131 1.635 0 1.673 0 1.903-.126a1.87 1.87 0 0 0 .815-.82l.153-.312v-3.227l-.153-.312a1.87 1.87 0 0 0-.815-.82c-.23-.12-.284-.126-1.848-.137-1.509-.011-1.63-.005-1.898.098zm3.27 1.122c.29.148.323.323.323 1.662s-.033 1.515-.323 1.662c-.137.071-.388.088-1.455.088-1.405 0-1.531-.022-1.662-.312-.082-.175-.082-2.702 0-2.877.131-.29.241-.306 1.652-.312 1.077 0 1.329.016 1.466.088z"/></symbol><symbol id="icon-instagram" viewBox="0 0 28 28"><path d="M27.973 8.232c-.066-1.488-.306-2.511-.651-3.397a6.842 6.842 0 0 0-1.619-2.483A6.891 6.891 0 0 0 23.225.738c-.891-.345-1.909-.585-3.397-.651-1.499-.071-1.975-.088-5.776-.088S9.775.015 8.281.081C6.793.147 5.77.387 4.884.732a6.842 6.842 0 0 0-2.483 1.619A6.904 6.904 0 0 0 .787 4.829C.442 5.721.202 6.738.136 8.226.065 9.725.048 10.201.048 14.002s.016 4.277.082 5.771c.066 1.488.306 2.51.651 3.397A6.907 6.907 0 0 0 2.4 25.653a6.891 6.891 0 0 0 2.478 1.614c.892.345 1.909.585 3.397.651 1.493.066 1.969.082 5.771.082s4.277-.016 5.771-.082c1.488-.066 2.51-.306 3.397-.651a7.16 7.16 0 0 0 4.097-4.097c.344-.892.585-1.909.651-3.397.066-1.493.082-1.969.082-5.771s-.006-4.277-.071-5.771zm-2.522 11.432c-.06 1.368-.29 2.106-.481 2.598a4.645 4.645 0 0 1-2.658 2.658c-.492.192-1.236.421-2.598.481-1.477.066-1.92.082-5.656.082s-4.184-.016-5.656-.082c-1.367-.06-2.106-.29-2.598-.481a4.3 4.3 0 0 1-1.608-1.045 4.36 4.36 0 0 1-1.045-1.608c-.191-.492-.421-1.236-.481-2.598-.066-1.477-.082-1.92-.082-5.656s.016-4.184.082-5.656c.06-1.367.29-2.106.481-2.598.224-.607.58-1.16 1.05-1.608a4.36 4.36 0 0 1 1.608-1.045c.492-.191 1.236-.421 2.598-.481 1.477-.066 1.92-.082 5.656-.082 3.741 0 4.184.016 5.656.082 1.368.06 2.106.29 2.598.481.607.224 1.159.58 1.608 1.045a4.36 4.36 0 0 1 1.045 1.608c.191.492.421 1.236.481 2.598.066 1.477.082 1.92.082 5.656s-.016 4.174-.082 5.65z"/><path d="M14.052 6.81c-3.971 0-7.193 3.222-7.193 7.193s3.222 7.193 7.193 7.193c3.971 0 7.193-3.222 7.193-7.193S18.023 6.81 14.052 6.81zm0 11.858a4.667 4.667 0 1 1 .001-9.333 4.667 4.667 0 0 1-.001 9.333zM23.209 6.526a1.68 1.68 0 1 1-3.359 0 1.68 1.68 0 0 1 3.359 0z"/></symbol><symbol id="icon-screen" viewBox="0 0 28 28"><path d="M1.58 1.93c-.279.148-.569.498-.651.793-.033.137-.055 3.008-.055 8.706.005 6.962.016 8.542.077 8.712.115.312.339.574.634.722l.268.137h4.463c3.943 0 4.457.011 4.457.082 0 .044-.137.634-.306 1.313l-.306 1.23h-.667c-.788.005-1.099.066-1.313.262-.246.235-.306.438-.306 1.077 0 .651.055.842.323 1.094l.175.164 11.134.027.18-.12c.355-.246.41-.372.427-1.045.022-.705-.033-.946-.268-1.176-.224-.219-.536-.284-1.362-.284h-.651l-.055-.208c-.164-.596-.552-2.237-.552-2.319 0-.093.273-.098 4.534-.109l4.534-.016.235-.164c.279-.197.465-.448.541-.744.038-.131.049-3.134.044-8.783l-.016-8.586-.164-.263a1.81 1.81 0 0 0-.405-.438l-.235-.164-24.473-.027-.241.126zm24.555.892.115.148v14.585H1.75V2.97l.115-.148.109-.142h24.052l.109.142zm.115 16.313c0 .629-.011.716-.115.848l-.109.142H1.974l-.109-.142c-.104-.131-.115-.219-.115-.848v-.705h24.5v.705zm-9.975 1.931c.022.033.18.623.35 1.313l.317 1.247h-5.884l.317-1.247c.17-.689.328-1.28.35-1.313.055-.093 4.495-.093 4.55 0zm2.975 3.882v.427H8.75v-.848h10.5v.421z"/></symbol><symbol id="icon-book" viewBox="0 0 28 28"><path d="M5.523 3.232c-.695.06-2.133.295-2.505.405-.306.093-.64.416-.7.667-.016.088-.038.18-.049.213-.011.038-.186.093-.394.126-.897.153-1.334.284-1.531.459-.109.098-.23.252-.268.35-.066.148-.077 1.663-.077 8.695 0 8.192.005 8.531.104 8.745.131.29.388.47.711.503.142.011.552-.038.963-.115 1.449-.284 2.073-.339 3.773-.339 1.258 0 1.717.022 2.215.098 1.805.284 2.576.552 4.566 1.591l.328.17h2.68l.328-.17.973-.498c1.012-.52 2.138-.864 3.593-1.094.498-.077.957-.098 2.215-.098 1.701 0 2.324.055 3.773.339.41.077.82.126.963.115a.849.849 0 0 0 .711-.503c.098-.213.104-.552.104-8.745 0-7.033-.011-8.548-.077-8.695a1.154 1.154 0 0 0-.268-.35c-.197-.175-.634-.306-1.531-.459-.208-.033-.383-.087-.394-.126a2.128 2.128 0 0 1-.049-.213c-.022-.082-.126-.246-.23-.366-.241-.263-.438-.328-1.553-.514-3.057-.514-5.945-.208-8.039.842-.503.252-1.334.798-1.635 1.066l-.224.202-.241-.213c-1.116-.984-2.887-1.728-4.791-2.012-.695-.104-2.647-.148-3.445-.077zm2.74.82c2.045.208 3.823.897 5.015 1.941l.284.252v15.679l-.432-.301a10.223 10.223 0 0 0-2.204-1.083c-2.078-.695-4.785-.771-7.53-.219-.355.071-.334.394-.334-5.622 0-5.387 0-5.458-.109-5.567-.137-.137-.388-.142-.552-.005l-.131.104v5.6c0 6.207-.027 5.759.355 6.081.312.257.52.284 1.274.153 1.537-.273 2.636-.355 3.806-.279 2.144.131 3.664.629 5.266 1.723.809.552 1.258.53 2.188-.088 1.706-1.137 3.516-1.646 5.868-1.652 1.045 0 1.755.06 2.734.235 1.006.18 1.116.186 1.395.038a1.23 1.23 0 0 0 .41-.361l.164-.241v-4.266l-.131-.104a.39.39 0 0 0-.536.016l-.126.115v1.98c0 1.542-.016 1.996-.071 2.073-.071.093-.109.093-.891-.038-1.116-.191-1.848-.257-2.926-.257-1.083 0-1.805.066-2.718.252-1.274.252-2.51.76-3.456 1.411l-.438.301V6.244l.262-.23c1.055-.941 2.581-1.591 4.413-1.898.815-.131 2.98-.131 3.943 0 1.055.148 1.734.295 1.81.405.055.071.071 1.181.071 5.108v5.02l.142.109c.235.186.47.142.596-.109.071-.131.082-.815.082-4.698V5.412l.235.033c.126.022.438.087.695.153l.465.115v16.844l-.191-.005a14.235 14.235 0 0 1-.984-.148c-1.405-.246-1.854-.284-3.555-.284-1.728 0-2.237.049-3.473.328-1.028.23-1.805.514-2.871 1.05l-1.012.509h-2.133l-1.012-.509c-1.066-.536-1.843-.82-2.871-1.05-1.236-.279-1.745-.328-3.473-.328-1.701 0-2.149.038-3.555.284-.438.077-.88.142-.984.148l-.191.005V5.713l.465-.115c.257-.066.569-.131.7-.153l.23-.033v1.061c0 1.138.027 1.291.257 1.395.186.087.257.077.421-.055l.142-.109V6.156c0-1.148.016-1.57.071-1.635.098-.142 1.619-.421 2.691-.492.645-.044 1.92-.033 2.439.022z"/><path d="M5.775 6.289c-.804.06-1.509.159-1.63.224-.208.109-.202.503.011.662.137.098.164.098.848.011.853-.104 2.603-.12 3.391-.027 1.263.153 2.412.492 3.396.99.35.18.684.328.744.328.153 0 .372-.246.372-.416 0-.202-.224-.388-.848-.695-1.012-.498-1.958-.787-3.199-.968-.826-.12-2.27-.175-3.084-.109zM20.07 6.289c-1.613.131-2.898.465-4.123 1.077-.656.328-.853.492-.853.7 0 .164.224.41.372.41.06 0 .394-.148.744-.328.984-.498 2.133-.837 3.396-.99.777-.093 2.483-.077 3.363.027.711.087.744.087.875-.011.213-.164.219-.552.005-.667-.306-.159-2.734-.301-3.779-.219zM6.016 9.685c-1.088.049-1.772.148-1.909.279-.159.142-.153.443.005.591.142.131.071.131 1.006.022.979-.115 3.068-.082 3.85.06 1.187.213 2.264.574 3.024 1.017.448.252.64.273.798.071.263-.334.109-.541-.695-.946-1.684-.842-3.675-1.203-6.081-1.094zM20.371 9.685c-1.69.077-3.216.454-4.484 1.105-.612.312-.793.465-.793.656 0 .186.197.421.355.421.077 0 .421-.148.777-.328 1.001-.509 2.111-.826 3.407-.984.667-.082 2.543-.066 3.309.027.837.104.804.104.946-.027.159-.148.164-.448.005-.591-.126-.12-.755-.219-1.662-.262-.301-.011-.667-.033-.82-.038-.148-.011-.618 0-1.039.022zM5.496 13.103c-.087.011-.405.049-.7.082-.634.071-.804.17-.804.465 0 .115.044.23.115.301.126.126.033.126 1.28-.005.656-.071 2.253-.071 2.915.005 1.269.137 2.527.498 3.505 1.006.312.164.634.301.716.301.312 0 .498-.432.279-.651-.29-.29-1.613-.88-2.521-1.127-1.077-.29-1.728-.366-3.227-.383a31.323 31.323 0 0 0-1.559.005zM19.797 13.103c-1.641.197-2.647.476-3.806 1.039-.705.345-.897.498-.897.722 0 .191.202.394.388.394.077 0 .399-.137.711-.301.979-.509 2.237-.87 3.505-1.006.662-.077 2.259-.077 2.915-.005 1.247.131 1.154.131 1.28.005.153-.153.153-.448 0-.585-.186-.164-.891-.241-2.455-.262a36.701 36.701 0 0 0-1.641 0zM5.031 16.548c-.853.093-1.001.159-1.028.476-.011.142.016.23.104.317.104.104.153.115.481.082.197-.016.656-.06 1.017-.093.798-.077 2.472-.033 3.21.082 1.148.18 2.231.53 3.09.995.252.131.525.241.618.241.301 0 .492-.372.306-.613-.159-.213-1.214-.722-2.111-1.023-1.498-.498-3.675-.673-5.688-.465zM19.523 16.543c-.837.104-1.214.175-1.876.361-.973.273-2.28.87-2.483 1.132-.18.241.011.613.312.613.093 0 .366-.109.618-.241.859-.465 1.941-.815 3.09-.995.738-.115 2.412-.159 3.21-.082.361.033.82.077 1.017.093.328.033.377.022.481-.082a.42.42 0 0 0-.049-.613c-.317-.23-3.024-.345-4.32-.186z"/></symbol><symbol id="icon-paper" viewBox="0 0 28 28"><path d="M4.156 14v11.648h19.688V9.061l-.645-.662a789.64 789.64 0 0 1-3.232-3.358L17.38 2.35H4.157v11.648zm13.24-9.095c1.006 1.012 3.823 3.954 4.309 4.495l.361.405.016 7.044.016 7.049H5.905V4.101h10.691l.798.804z"/></symbol><symbol id="icon-pinterest" viewBox="0 0 28 28"><path d="M12.934.06c-2.368.219-4.512.957-6.152 2.122-.634.448-1.597 1.367-2.051 1.952C3.424 5.829 2.762 7.65 2.647 9.865c-.142 2.795 1.362 5.857 3.38 6.874.383.197.613.208.722.033.109-.159.58-1.991.58-2.231 0-.137-.071-.273-.252-.514-.492-.651-.919-1.706-1.094-2.707-.109-.623-.077-1.766.06-2.406A7.366 7.366 0 0 1 9.461 4.14c1.258-.76 2.751-1.137 4.484-1.137 2.302 0 4.074.678 5.502 2.105.924.93 1.405 1.799 1.717 3.101.284 1.214.235 2.926-.142 4.435-.552 2.226-1.777 3.888-3.396 4.599a4.315 4.315 0 0 1-1.821.383c-.897.005-1.4-.18-1.991-.727a2.124 2.124 0 0 1-.634-.979c-.23-.684-.153-1.127.602-3.505.908-2.866 1.012-3.724.569-4.676-.355-.771-1.05-1.176-1.996-1.176-1.411 0-2.587 1.077-3.046 2.784-.12.454-.137.64-.137 1.345 0 .897.104 1.509.366 2.155l.137.339-1.088 4.391c-.678 2.756-1.11 4.594-1.143 4.922-.131 1.154-.044 3.309.191 4.818.087.558.164.722.317.667.208-.082 1.57-2.291 2.193-3.566.574-1.17.656-1.411 1.345-3.932.53-1.93.569-2.056.645-1.941.17.279.826.853 1.225 1.083.859.487 1.783.716 2.871.716 1.728 0 3.369-.525 4.878-1.564.607-.416 1.739-1.553 2.188-2.198 1.274-1.821 1.93-3.839 2.056-6.3a9.245 9.245 0 0 0-2.537-6.841C21.099 1.631 18.862.515 16.193.132c-.716-.098-2.521-.142-3.259-.071z"/></symbol><symbol id="icon-search" viewBox="0 0 28 28"><path d="M9.707.033c-2.598.279-4.692 1.23-6.475 2.948C1.559 4.594.525 6.585.126 8.969c-.126.782-.126 2.28 0 3.063.399 2.384 1.433 4.375 3.106 5.988 2.778 2.68 6.661 3.615 10.33 2.499 1.209-.372 2.368-.979 3.287-1.728l.306-.246.033.399c.016.224.066.476.109.558.049.088 1.865 1.936 4.041 4.102 3.795 3.79 3.965 3.948 4.282 4.069.689.252 1.34.104 1.887-.432.262-.257.339-.372.416-.64.082-.279.082-.366.027-.651a2.23 2.23 0 0 0-.224-.574c-.088-.137-1.892-1.969-4.003-4.08-4.162-4.151-4.02-4.025-4.698-4.107-.148-.016-.268-.049-.268-.071s.082-.148.186-.284c.787-1.028 1.515-2.702 1.81-4.173.487-2.406.18-4.72-.908-6.863C18.297 2.746 15.47.69 12.058.138 11.517.05 10.133-.01 9.706.034zm1.783 2.652a7.842 7.842 0 0 1 5.595 3.495 7.87 7.87 0 0 1-2.264 10.905 7.87 7.87 0 0 1-10.905-2.264A7.87 7.87 0 0 1 6.18 3.916a7.873 7.873 0 0 1 5.31-1.23z"/></symbol><symbol id="icon-shopping" viewBox="0 0 28 28"><path d="M.427 1.81C.192 1.93 0 2.253 0 2.515c0 .273.191.585.438.711.202.104.317.109 2.428.109h2.22l.027.12c.071.29 2.926 13.169 2.926 13.196 0 .011-.104.077-.23.142a2.562 2.562 0 0 0-.536.427c-.733.755-.902 1.794-.448 2.762.317.678 1.001 1.203 1.755 1.345.164.027.64.055 1.066.06.596.005.716.016.53.055-1.241.241-2.138 1.52-1.93 2.762.224 1.34 1.477 2.27 2.778 2.056a2.46 2.46 0 0 0 2.056-2.056c.208-1.241-.689-2.521-1.93-2.762-.142-.027 2.051-.049 5.31-.049s5.452.022 5.31.049c-1.241.241-2.138 1.52-1.93 2.762a2.46 2.46 0 0 0 2.056 2.056c1.302.213 2.554-.716 2.778-2.056.208-1.241-.689-2.521-1.93-2.762-.186-.038-.06-.049.541-.055.667-.005.815-.022.995-.115.246-.126.438-.438.438-.711s-.191-.585-.438-.711c-.213-.109-.306-.109-7.82-.109s-7.607 0-7.82-.109a.865.865 0 0 1-.438-.711c0-.246.191-.585.399-.695.164-.093.64-.098 7.87-.126 7.662-.027 7.695-.027 7.842-.142.082-.06.197-.17.252-.246.109-.142 3.434-11.714 3.434-11.944 0-.246-.202-.563-.438-.684-.213-.109-.301-.109-10.325-.109H7.124l-.295-1.351c-.213-.979-.334-1.405-.432-1.553-.241-.377-.224-.377-3.161-.377-2.488.005-2.62.011-2.811.115zm25.637 4.9c-.016.055-.645 2.27-1.405 4.922l-1.378 4.829H9.68l-.027-.126c-.016-.066-.498-2.226-1.066-4.796s-1.05-4.73-1.066-4.802l-.027-.12h9.297c8.837 0 9.302.005 9.275.093zM11.047 23.133a.865.865 0 0 1 .438.711c0 .416-.405.82-.82.82s-.82-.405-.82-.82c0-.262.191-.585.427-.705a.774.774 0 0 1 .777-.005zm11.594 0a.865.865 0 0 1 .438.711c0 .416-.405.82-.82.82s-.82-.405-.82-.82c0-.262.191-.585.427-.705a.774.774 0 0 1 .777-.005z"/></symbol><symbol id="icon-twitter" viewBox="0 0 26 28"><path d="M25.312 6.375a10.85 10.85 0 0 1-2.531 2.609c.016.219.016.438.016.656 0 6.672-5.078 14.359-14.359 14.359-2.859 0-5.516-.828-7.75-2.266.406.047.797.063 1.219.063 2.359 0 4.531-.797 6.266-2.156a5.056 5.056 0 0 1-4.719-3.5c.313.047.625.078.953.078.453 0 .906-.063 1.328-.172a5.048 5.048 0 0 1-4.047-4.953v-.063a5.093 5.093 0 0 0 2.281.641 5.044 5.044 0 0 1-2.25-4.203c0-.938.25-1.797.688-2.547a14.344 14.344 0 0 0 10.406 5.281 5.708 5.708 0 0 1-.125-1.156 5.045 5.045 0 0 1 5.047-5.047 5.03 5.03 0 0 1 3.687 1.594 9.943 9.943 0 0 0 3.203-1.219 5.032 5.032 0 0 1-2.219 2.781c1.016-.109 2-.391 2.906-.781z"/></symbol></defs></svg>